<svg width="97" height="22" viewBox="0 0 97 22" fill="none" xmlns="http://www.w3.org/2000/svg">
<path d="M4.825 9.025C5.225 8.375 5.8 7.85 6.55 7.45C7.3 7.05 8.15833 6.85 9.125 6.85C10.275 6.85 11.3167 7.14167 12.25 7.725C13.1833 8.30833 13.9167 9.14167 14.45 10.225C15 11.3083 15.275 12.5667 15.275 14C15.275 15.4333 15 16.7 14.45 17.8C13.9167 18.8833 13.1833 19.725 12.25 20.325C11.3167 20.9083 10.275 21.2 9.125 21.2C8.14167 21.2 7.28333 21.0083 6.55 20.625C5.81667 20.225 5.24167 19.7 4.825 19.05V21H0.55V2.5H4.825V9.025ZM10.925 14C10.925 12.9333 10.625 12.1 10.025 11.5C9.44167 10.8833 8.71667 10.575 7.85 10.575C7 10.575 6.275 10.8833 5.675 11.5C5.09167 12.1167 4.8 12.9583 4.8 14.025C4.8 15.0917 5.09167 15.9333 5.675 16.55C6.275 17.1667 7 17.475 7.85 17.475C8.7 17.475 9.425 17.1667 10.025 16.55C10.625 15.9167 10.925 15.0667 10.925 14ZM20.2928 9.375C20.7928 8.60833 21.4178 8.00833 22.1678 7.575C22.9178 7.125 23.7511 6.9 24.6678 6.9V11.425H23.4928C22.4261 11.425 21.6261 11.6583 21.0928 12.125C20.5594 12.575 20.2928 13.375 20.2928 14.525V21H16.0178V7.05H20.2928V9.375ZM24.3611 14C24.3611 12.5667 24.6278 11.3083 25.1611 10.225C25.7111 9.14167 26.4528 8.30833 27.3861 7.725C28.3195 7.14167 29.3611 6.85 30.5111 6.85C31.4945 6.85 32.3528 7.05 33.0861 7.45C33.8361 7.85 34.4111 8.375 34.8111 9.025V7.05H39.0861V21H34.8111V19.025C34.3945 19.675 33.8111 20.2 33.0611 20.6C32.3278 21 31.4695 21.2 30.4861 21.2C29.3528 21.2 28.3195 20.9083 27.3861 20.325C26.4528 19.725 25.7111 18.8833 25.1611 17.8C24.6278 16.7 24.3611 15.4333 24.3611 14ZM34.8111 14.025C34.8111 12.9583 34.5111 12.1167 33.9111 11.5C33.3278 10.8833 32.6111 10.575 31.7611 10.575C30.9111 10.575 30.1861 10.8833 29.5861 11.5C29.0028 12.1 28.7111 12.9333 28.7111 14C28.7111 15.0667 29.0028 15.9167 29.5861 16.55C30.1861 17.1667 30.9111 17.475 31.7611 17.475C32.6111 17.475 33.3278 17.1667 33.9111 16.55C34.5111 15.9333 34.8111 15.0917 34.8111 14.025ZM49.1789 6.9C50.8122 6.9 52.1122 7.43333 53.0789 8.5C54.0622 9.55 54.5539 11 54.5539 12.85V21H50.3039V13.425C50.3039 12.4917 50.0622 11.7667 49.5789 11.25C49.0956 10.7333 48.4456 10.475 47.6289 10.475C46.8122 10.475 46.1622 10.7333 45.6789 11.25C45.1956 11.7667 44.9539 12.4917 44.9539 13.425V21H40.6789V7.05H44.9539V8.9C45.3872 8.28333 45.9706 7.8 46.7039 7.45C47.4372 7.08333 48.2622 6.9 49.1789 6.9ZM55.1746 14C55.1746 12.5667 55.4413 11.3083 55.9746 10.225C56.5246 9.14167 57.2663 8.30833 58.1996 7.725C59.1329 7.14167 60.1746 6.85 61.3246 6.85C62.2413 6.85 63.0746 7.04167 63.8246 7.425C64.5913 7.80833 65.1913 8.325 65.6246 8.975V2.5H69.8996V21H65.6246V19C65.2246 19.6667 64.6496 20.2 63.8996 20.6C63.1663 21 62.3079 21.2 61.3246 21.2C60.1746 21.2 59.1329 20.9083 58.1996 20.325C57.2663 19.725 56.5246 18.8833 55.9746 17.8C55.4413 16.7 55.1746 15.4333 55.1746 14ZM65.6246 14.025C65.6246 12.9583 65.3246 12.1167 64.7246 11.5C64.1413 10.8833 63.4246 10.575 62.5746 10.575C61.7246 10.575 60.9996 10.8833 60.3996 11.5C59.8163 12.1 59.5246 12.9333 59.5246 14C59.5246 15.0667 59.8163 15.9167 60.3996 16.55C60.9996 17.1667 61.7246 17.475 62.5746 17.475C63.4246 17.475 64.1413 17.1667 64.7246 16.55C65.3246 15.9333 65.6246 15.0917 65.6246 14.025ZM73.4924 21.2C72.7424 21.2 72.1257 20.9833 71.6424 20.55C71.1757 20.1 70.9424 19.55 70.9424 18.9C70.9424 18.2333 71.1757 17.675 71.6424 17.225C72.1257 16.775 72.7424 16.55 73.4924 16.55C74.2257 16.55 74.8257 16.775 75.2924 17.225C75.7757 17.675 76.0174 18.2333 76.0174 18.9C76.0174 19.55 75.7757 20.1 75.2924 20.55C74.8257 20.9833 74.2257 21.2 73.4924 21.2ZM79.198 5.6C78.448 5.6 77.8314 5.38333 77.348 4.95C76.8814 4.5 76.648 3.95 76.648 3.3C76.648 2.63333 76.8814 2.08333 77.348 1.65C77.8314 1.2 78.448 0.974999 79.198 0.974999C79.9314 0.974999 80.5314 1.2 80.998 1.65C81.4814 2.08333 81.723 2.63333 81.723 3.3C81.723 3.95 81.4814 4.5 80.998 4.95C80.5314 5.38333 79.9314 5.6 79.198 5.6ZM81.323 7.05V21H77.048V7.05H81.323ZM89.2711 21.2C87.9044 21.2 86.6711 20.9083 85.5711 20.325C84.4878 19.7417 83.6294 18.9083 82.9961 17.825C82.3794 16.7417 82.0711 15.475 82.0711 14.025C82.0711 12.5917 82.3878 11.3333 83.0211 10.25C83.6544 9.15 84.5211 8.30833 85.6211 7.725C86.7211 7.14167 87.9544 6.85 89.3211 6.85C90.6878 6.85 91.9211 7.14167 93.0211 7.725C94.1211 8.30833 94.9878 9.15 95.6211 10.25C96.2544 11.3333 96.5711 12.5917 96.5711 14.025C96.5711 15.4583 96.2461 16.725 95.5961 17.825C94.9628 18.9083 94.0878 19.7417 92.9711 20.325C91.8711 20.9083 90.6378 21.2 89.2711 21.2ZM89.2711 17.5C90.0878 17.5 90.7794 17.2 91.3461 16.6C91.9294 16 92.2211 15.1417 92.2211 14.025C92.2211 12.9083 91.9378 12.05 91.3711 11.45C90.8211 10.85 90.1378 10.55 89.3211 10.55C88.4878 10.55 87.7961 10.85 87.2461 11.45C86.6961 12.0333 86.4211 12.8917 86.4211 14.025C86.4211 15.1417 86.6878 16 87.2211 16.6C87.7711 17.2 88.4544 17.5 89.2711 17.5Z" fill="#313131"/>
</svg>
